<svg width="190" height="48" viewBox="0 0 190 48" fill="none" xmlns="http://www.w3.org/2000/svg" role="img" aria-label="MakeAI">
  <rect x="1" y="1" width="46" height="46" rx="8" fill="#071017" stroke="#22D3EE" stroke-opacity="0.55" stroke-width="2"/>
  <path d="M13 33V15H18.2L24 24.9L29.8 15H35V33H30.4V22.2L25.7 30H22.3L17.6 22.2V33H13Z" fill="white"/>
  <path d="M57 33V15H61.9L68 24.8L74.1 15H79V33H74.5V22.5L69.6 30.2H66.4L61.5 22.5V33H57Z" fill="white"/>
  <path d="M83.8 33L91.2 15H95.7L103.1 33H98.1L96.8 29.7H90L88.7 33H83.8ZM91.4 25.9H95.4L93.4 20.6L91.4 25.9Z" fill="white"/>
  <path d="M108 33V15H112.7V22.2L119.4 15H125L117.8 22.8L125.4 33H119.7L114.5 25.9L112.7 27.8V33H108Z" fill="white"/>
  <path d="M130.2 33V15H143.5V18.9H134.9V22H142.7V25.8H134.9V29.1H143.8V33H130.2Z" fill="white"/>
  <path d="M148.4 33L155.8 15H160.3L167.7 33H162.7L161.4 29.7H154.6L153.3 33H148.4ZM156 25.9H160L158 20.6L156 25.9Z" fill="#67E8F9"/>
  <path d="M172.4 33V15H177.1V33H172.4Z" fill="#67E8F9"/>
  <path d="M49 39H180" stroke="#22D3EE" stroke-opacity="0.28"/>
</svg>
