<svg xmlns="http://www.w3.org/2000/svg" width="380" height="104" viewBox="0 0 380 104">
<g>
<path d="M 0.00 0.00 L 380.00 0.00 L 380.00 104.00 L 0.00 104.00 ZM 7.00 29.00 L 7.00 97.00 L 20.00 97.00 L 20.04 74.25 C20.05,72.34 20.05,70.57 20.05,68.94 C20.04,59.12 20.03,54.23 21.16,53.96 C22.27,53.68 24.50,57.93 28.92,66.38 C29.66,67.81 30.47,69.34 31.34,71.00 L 39.50 86.50 L 44.55 86.80 L 49.60 87.09 L 59.28 68.80 L 68.96 50.50 L 68.98 73.75 L 69.00 97.00 L 83.00 97.00 L 83.00 28.92 L 74.85 29.21 L 66.70 29.50 L 56.10 49.72 C50.27,60.84 45.19,69.95 44.82,69.97 C44.45,69.99 39.36,60.78 33.51,49.50 L 22.88 29.00 ZM 289.29 95.75 C288.91,96.68 290.68,97.00 296.29,97.00 L 303.80 97.00 L 306.54 89.47 L 309.29 81.95 L 323.37 82.22 L 337.45 82.50 L 340.14 89.50 L 342.82 96.50 L 350.38 96.79 L 357.94 97.08 L 356.55 93.29 C355.78,91.21 349.80,76.00 343.26,59.50 L 331.37 29.50 L 323.81 29.21 C318.34,29.00 316.10,29.28 315.74,30.21 C315.34,31.22 291.41,90.53 289.29,95.75 ZM 93.00 95.20 C93.00,96.54 105.13,95.17 106.69,93.65 C107.34,93.02 108.75,90.25 109.82,87.50 L 111.76 82.50 L 126.13 82.00 C140.75,81.49 142.24,81.13 149.66,76.30 L 151.82 74.89 L 148.59 66.69 C146.82,62.19 142.75,51.86 139.56,43.75 L 133.74 29.00 L 119.28 29.00 L 113.51 43.25 C110.34,51.09 106.27,61.10 104.46,65.50 C98.18,80.80 93.00,94.22 93.00,95.20 ZM 234.00 29.00 L 234.00 97.04 L 257.25 96.77 L 280.50 96.50 L 280.50 86.50 L 247.50 85.50 L 247.21 76.78 L 246.92 68.06 L 261.21 67.78 L 275.50 67.50 L 275.80 62.28 L 276.10 57.06 L 261.80 56.78 L 247.50 56.50 L 247.21 48.25 L 246.92 40.00 L 280.00 40.00 L 280.00 29.00 ZM 102.62 96.54 L 93.50 97.95 L 105.00 97.52 C139.92,96.19 169.61,82.79 194.06,57.30 C201.88,49.15 214.89,31.83 216.24,27.78 C216.46,27.13 217.79,27.36 219.79,28.39 C222.19,29.63 223.00,29.73 223.00,28.78 C222.99,26.67 219.22,7.88 218.70,7.36 C218.43,7.09 213.55,9.22 207.85,12.08 L 197.50 17.28 L 200.75 18.82 C204.58,20.64 204.71,21.67 201.87,27.29 C194.27,42.27 176.17,63.07 161.99,73.09 C144.52,85.44 125.34,93.01 102.62,96.54 ZM 362.00 29.00 L 362.00 97.00 L 376.00 97.00 L 376.00 29.00 L 362.00 29.00 ZM 208.27 94.75 C210.09,96.72 211.34,97.00 218.30,97.00 C224.50,97.00 226.03,96.73 225.28,95.75 C224.74,95.06 219.23,87.75 213.02,79.50 C211.74,77.79 210.57,76.24 209.50,74.81 C201.86,64.62 199.56,61.54 197.58,61.74 C196.46,61.86 195.44,63.04 193.59,64.58 C191.07,66.70 189.00,68.69 189.00,69.02 C189.00,69.75 205.37,91.60 208.27,94.75 ZM 168.00 45.50 C168.00,54.58 168.33,62.00 168.72,62.00 C169.12,62.00 172.27,59.20 175.72,55.78 L 182.00 49.56 L 182.00 29.00 L 168.00 29.00 ZM 135.20 70.47 C134.91,70.76 130.69,71.00 125.83,71.00 C118.99,71.00 117.00,70.69 117.00,69.62 C117.00,68.86 118.17,65.15 119.60,61.37 C121.03,57.59 122.91,52.35 123.76,49.72 C124.62,47.09 125.76,45.09 126.29,45.26 C127.46,45.65 135.96,69.71 135.20,70.47 ZM 332.38 70.19 C331.71,71.28 314.00,71.23 314.00,70.14 C314.00,69.00 321.61,48.51 322.88,46.26 C323.71,44.78 323.95,44.74 324.39,46.00 C324.68,46.83 326.71,52.42 328.90,58.44 C331.09,64.46 332.65,69.75 332.38,70.19 ZM 168.00 84.17 L 168.00 97.00 L 182.00 97.00 L 182.00 74.76 L 179.75 76.40 C178.51,77.30 175.36,79.42 172.75,81.11 ZM 145.49 95.99 C146.29,97.27 160.00,97.33 160.00,96.05 C160.00,95.52 159.47,93.94 158.83,92.53 C157.56,89.73 157.07,89.76 149.19,93.14 C146.81,94.15 145.15,95.44 145.49,95.99 Z" fill="rgb(3,3,4)"/>
<path d="M 289.29 95.75 C291.41,90.53 315.34,31.22 315.74,30.21 C316.10,29.28 318.34,29.00 323.81,29.21 L 331.37 29.50 L 343.26 59.50 C349.80,76.00 355.78,91.21 356.55,93.29 L 357.94 97.08 L 350.38 96.79 L 342.82 96.50 L 340.14 89.50 L 337.45 82.50 L 323.37 82.22 L 309.29 81.95 L 306.54 89.47 L 303.80 97.00 L 296.29 97.00 C290.68,97.00 288.91,96.68 289.29,95.75 ZM 362.00 29.00 L 376.00 29.00 L 376.00 97.00 L 362.00 97.00 ZM 332.38 70.19 C332.65,69.75 331.09,64.46 328.90,58.44 C326.71,52.42 324.68,46.83 324.39,46.00 C323.95,44.74 323.71,44.78 322.88,46.26 C321.61,48.51 314.00,69.00 314.00,70.14 C314.00,71.23 331.71,71.28 332.38,70.19 Z" fill="rgb(32,198,211)"/>
<path d="M 102.62 96.54 C125.34,93.01 144.52,85.44 161.99,73.09 C176.17,63.07 194.27,42.27 201.87,27.29 C204.71,21.67 204.58,20.64 200.75,18.82 L 197.50 17.28 L 207.85 12.08 C213.55,9.22 218.43,7.09 218.70,7.36 C219.22,7.88 222.99,26.67 223.00,28.78 C223.00,29.73 222.19,29.63 219.79,28.39 C217.79,27.36 216.46,27.13 216.24,27.78 C214.89,31.83 201.88,49.15 194.06,57.30 C169.61,82.79 139.92,96.19 105.00,97.52 L 93.50 97.95 ZM 171.57 72.89 C171.33,73.27 172.17,73.66 173.43,73.77 C175.12,73.90 178.93,70.90 187.85,62.40 C198.60,52.15 199.81,50.67 198.49,49.35 C196.80,47.66 196.51,46.58 197.99,47.49 C198.56,47.85 198.72,47.43 198.36,46.49 C198.02,45.61 197.10,45.13 196.32,45.43 C195.53,45.73 195.17,45.54 195.51,44.99 C195.84,44.44 195.61,44.00 195.00,44.00 C194.39,44.00 194.16,43.44 194.51,42.75 C194.85,42.06 192.96,43.97 190.32,47.00 C181.99,56.50 169.10,69.77 168.64,69.31 C168.40,69.07 167.90,69.36 167.53,69.96 C167.15,70.56 167.22,70.97 167.68,70.87 C169.00,70.57 172.03,72.15 171.57,72.89 Z" fill="rgb(177,177,177)"/>
<path d="M 7.00 63.00 L 7.00 29.00 L 14.94 29.00 L 22.88 29.00 L 33.51 49.50 C39.36,60.78 44.45,69.99 44.82,69.97 C45.19,69.95 50.27,60.84 56.10,49.72 L 66.70 29.50 L 74.85 29.21 L 83.00 28.92 L 83.00 62.96 L 83.00 97.00 L 76.00 97.00 L 69.00 97.00 L 68.98 73.75 L 68.96 50.50 L 59.28 68.80 L 49.60 87.09 L 44.55 86.80 L 39.50 86.50 L 31.34 71.00 C19.16,47.87 20.10,47.60 20.04,74.25 L 20.00 97.00 L 13.50 97.00 L 7.00 97.00 L 7.00 63.00 ZM 145.49 95.99 C145.15,95.44 146.81,94.15 149.19,93.14 C157.07,89.76 157.56,89.73 158.83,92.53 C159.47,93.94 160.00,95.52 160.00,96.05 C160.00,97.33 146.29,97.27 145.49,95.99 ZM 168.00 90.59 L 168.00 84.17 L 172.75 81.11 C175.36,79.42 178.51,77.30 179.75,76.40 L 182.00 74.76 L 182.00 85.88 L 182.00 97.00 L 175.00 97.00 L 168.00 97.00 L 168.00 90.59 ZM 208.27 94.75 C205.37,91.60 189.00,69.75 189.00,69.02 C189.00,68.69 191.07,66.70 193.59,64.58 C199.11,59.97 197.24,58.53 213.02,79.50 C219.23,87.75 224.74,95.06 225.28,95.75 C226.03,96.73 224.50,97.00 218.30,97.00 C211.34,97.00 210.09,96.72 208.27,94.75 ZM 234.00 63.02 L 234.00 29.00 L 257.00 29.00 L 280.00 29.00 L 280.00 34.50 L 280.00 40.00 L 263.46 40.00 L 246.92 40.00 L 247.21 48.25 L 247.50 56.50 L 261.80 56.78 L 276.10 57.06 L 275.80 62.28 L 275.50 67.50 L 261.21 67.78 L 246.92 68.06 L 247.21 76.78 L 247.50 85.50 L 264.00 86.00 L 280.50 86.50 L 280.50 91.50 L 280.50 96.50 L 257.25 96.77 L 234.00 97.04 L 234.00 63.02 ZM 93.00 95.20 C93.00,94.22 98.18,80.80 104.46,65.50 C106.27,61.10 110.34,51.09 113.51,43.25 L 119.28 29.00 L 126.51 29.00 L 133.74 29.00 L 139.56 43.75 C142.75,51.86 146.82,62.19 148.59,66.69 L 151.82 74.89 L 149.66 76.30 C142.24,81.13 140.75,81.49 126.13,82.00 L 111.76 82.50 L 109.82 87.50 C108.75,90.25 107.34,93.02 106.69,93.65 C105.13,95.17 93.00,96.54 93.00,95.20 ZM 135.20 70.47 C135.96,69.71 127.46,45.65 126.29,45.26 C125.76,45.09 124.62,47.09 123.76,49.72 C122.91,52.35 121.03,57.59 119.60,61.37 C118.17,65.15 117.00,68.86 117.00,69.62 C117.00,70.69 118.99,71.00 125.83,71.00 C130.69,71.00 134.91,70.76 135.20,70.47 ZM 171.57 72.89 C172.03,72.15 169.00,70.57 167.68,70.87 C167.22,70.97 167.15,70.56 167.53,69.96 C167.90,69.36 168.40,69.07 168.64,69.31 C169.10,69.77 181.99,56.50 190.32,47.00 C192.96,43.97 194.85,42.06 194.51,42.75 C194.16,43.44 194.39,44.00 195.00,44.00 C195.61,44.00 195.84,44.44 195.51,44.99 C195.17,45.54 195.53,45.73 196.32,45.43 C197.10,45.13 198.02,45.61 198.36,46.49 C198.72,47.43 198.56,47.85 197.99,47.49 C196.51,46.58 196.80,47.66 198.49,49.35 C199.81,50.67 198.60,52.15 187.85,62.40 C178.93,70.90 175.12,73.90 173.43,73.77 C172.17,73.66 171.33,73.27 171.57,72.89 ZM 168.00 45.50 L 168.00 29.00 L 175.00 29.00 L 182.00 29.00 L 182.00 39.28 L 182.00 49.56 L 175.72 55.78 C172.27,59.20 169.12,62.00 168.72,62.00 C168.33,62.00 168.00,54.58 168.00,45.50 Z" fill="rgb(252,252,252)"/>
</g>
</svg>